<svg width="112" height="27" viewBox="0 0 112 27" fill="none" xmlns="http://www.w3.org/2000/svg">
<path d="M43.5733 11.7388H111.596V14.5083H43.5733V11.7388Z" fill="white"/>
<path d="M39.3645 14.9513V11.2949C39.3645 10.346 40.1333 9.57715 41.0822 9.57715C42.0312 9.57715 42.7999 10.346 42.7999 11.2949V14.9513C42.7999 15.9002 42.0312 16.6691 41.0822 16.6691C40.1333 16.6691 39.3645 15.8987 39.3645 14.9513Z" fill="white"/>
<path d="M33.7833 15.4085V10.8379C33.7833 9.65292 34.7443 8.69189 35.9293 8.69189C37.1143 8.69189 38.0753 9.65292 38.0753 10.8379V15.4085C38.0753 16.5935 37.1143 17.5545 35.9293 17.5545C34.7443 17.5545 33.7833 16.5935 33.7833 15.4085Z" fill="white"/>
<path d="M27.2102 16.0371V10.2104C27.2102 8.69848 28.4361 7.47412 29.9465 7.47412C31.4584 7.47412 32.6828 8.7 32.6828 10.2104V16.0371C32.6828 17.549 31.4569 18.7734 29.9465 18.7734C28.4361 18.7734 27.2102 17.549 27.2102 16.0371Z" fill="white"/>
<path d="M16.3089 0.14731C17.2911 0.710305 17.5635 2.36752 17.8525 3.35124C18.2324 4.6422 18.5639 5.97401 19.0633 7.22561C19.3599 8.06103 19.024 7.12724 19.0633 7.22561C20.2059 10.4371 23.2661 12.5741 26.6788 12.4485C21.5287 13.8166 14.7394 11.5722 13.5968 5.79391C13.335 4.47118 13.4016 3.04098 13.9328 1.79089C14.2793 0.973639 15.2404 -0.464115 16.3089 0.14731Z" fill="white"/>
<path d="M12.5212 7.00009C13.1674 8.98723 14.3267 10.5839 16.3078 11.3784C13.402 11.3573 9.47769 10.985 7.8447 8.17452C7.13187 6.94713 6.69145 4.32436 8.50756 3.74623C10.3615 3.156 12.0565 5.40949 12.4924 6.92897C12.6937 7.56612 12.5953 7.23922 12.5212 7.00009Z" fill="white"/>
<path d="M20.2018 16.9023C18.6521 18.9439 18.2843 21.715 17.4898 24.0941C17.2098 24.9326 16.674 26.5792 15.4693 26.1872C14.419 25.8451 13.8727 24.533 13.6366 23.5584C13.0569 21.1566 13.8424 18.4324 15.5435 16.6541C18.3509 13.6817 22.7958 12.7752 26.6808 13.8058C24.1201 13.7135 21.744 14.8592 20.2018 16.9023Z" fill="white"/>
<path d="M13.0464 17.9199C12.2927 19.447 12.0884 21.0452 10.5462 22.0546C9.03282 23.0066 7.39071 22.4784 7.22726 20.582C7.09257 19.0293 7.9628 17.4962 9.20532 16.6108C9.25224 16.579 9.29764 16.5472 9.32337 16.5291C11.4331 15.1882 13.85 14.8976 16.3048 14.8779C14.8292 15.4712 13.7516 16.4897 13.0464 17.9199Z" fill="white"/>
<path d="M17.0402 13.1236C9.7727 13.3991 0.000490189 19.7343 0.000490189 13.1236C0.000490189 6.51297 9.65011 12.8361 17.0402 13.1236Z" fill="white"/>
</svg>
