<svg width="24" height="24" viewBox="0 0 24 24" fill="none" xmlns="http://www.w3.org/2000/svg">
<path d="M12 24C18.6275 24 24 18.627 24 12C24 5.373 18.6275 0 12 0C5.3725 0 0 5.3725 0 12C0 18.627 5.3725 24 12 24Z" fill="black"/>
<path d="M8.51367 15.012C8.53767 15.499 8.63967 16.0555 8.78617 16.627L9.37467 16.265L9.15967 14.836L8.51367 15.012Z" fill="#A48207"/>
<path d="M8.51443 15.012L9.16043 14.836L9.81843 13.745H7.63343C7.33587 13.7446 7.04058 13.6932 6.76043 13.593V15.2725C6.76043 16.727 5.96043 18.1085 6.54193 18.9815H8.63343C8.73876 18.9814 8.84251 18.9559 8.93589 18.9071C9.02926 18.8584 9.10951 18.7879 9.16981 18.7015C9.23012 18.6151 9.2687 18.5155 9.2823 18.411C9.2959 18.3066 9.28411 18.2004 9.24793 18.1015C8.86793 17.0625 8.55943 15.9175 8.51443 15.012Z" fill="#FFC800"/>
<path d="M5.01367 11.127C5.0138 11.8214 5.28974 12.4873 5.78079 12.9782C6.27184 13.4692 6.93779 13.745 7.63217 13.745H10.2502V8.509H7.63217C7.28833 8.50894 6.94784 8.5766 6.63015 8.70814C6.31247 8.83968 6.0238 9.03251 5.78064 9.27562C5.53749 9.51873 5.3446 9.80736 5.213 10.125C5.08141 10.4427 5.01367 10.7832 5.01367 11.127Z" fill="#FFC800"/>
<path d="M17.236 5.8905C17.237 7.5015 17.236 11.127 17.236 11.127H10.249V8.5085C15.687 8.5085 17.235 5.8905 17.235 5.8905" fill="#FFC800"/>
<path d="M17.236 16.3635C17.237 14.7525 17.236 11.127 17.236 11.127H10.249V13.745C15.687 13.745 17.235 16.3635 17.235 16.3635" fill="#FFC800"/>
<path d="M18.5453 5.45401H17.2363V11.127H18.5453V5.45401ZM18.5453 11.127H17.2363V16.8H18.5453V11.127Z" fill="#A48207"/>
</svg>
